<svg width="651" height="253" viewBox="0 0 651 253" fill="none" xmlns="http://www.w3.org/2000/svg">

<!-- 배경 -->
<rect x="1" y="1" width="648.667" height="251" rx="3" fill="#D1D5DB" stroke="#9CA3AF" stroke-width="2"/>

<!-- 강의실7 -->
<rect x="557" y="1" width="92.6667" height="92.359" rx="3" fill="white" stroke="#9CA3AF" stroke-width="2"/>
<path d="M595.561 38.62H596.891V43.98H595.561V38.62ZM596.531 40.78H598.121V41.88H596.531V40.78ZM592.921 39.23H594.351C594.351 40.0567 594.185 40.8 593.851 41.46C593.518 42.1133 593.031 42.67 592.391 43.13C591.758 43.59 590.988 43.9467 590.081 44.2L589.541 43.14C590.281 42.9333 590.901 42.67 591.401 42.35C591.908 42.0233 592.288 41.6533 592.541 41.24C592.795 40.82 592.921 40.37 592.921 39.89V39.23ZM589.971 39.23H593.721V40.29H589.971V39.23ZM593.891 44.1C594.518 44.1 595.065 44.18 595.531 44.34C595.998 44.4933 596.358 44.7133 596.611 45C596.871 45.28 597.001 45.6133 597.001 46C597.001 46.3867 596.871 46.72 596.611 47C596.358 47.2867 595.998 47.5067 595.531 47.66C595.065 47.8133 594.518 47.89 593.891 47.89C593.271 47.89 592.728 47.8133 592.261 47.66C591.795 47.5067 591.431 47.2867 591.171 47C590.911 46.72 590.781 46.3867 590.781 46C590.781 45.6133 590.911 45.28 591.171 45C591.431 44.7133 591.795 44.4933 592.261 44.34C592.728 44.18 593.271 44.1 593.891 44.1ZM593.891 45.13C593.525 45.13 593.205 45.1633 592.931 45.23C592.665 45.2967 592.458 45.3933 592.311 45.52C592.171 45.6467 592.101 45.8067 592.101 46C592.101 46.1867 592.171 46.3433 592.311 46.47C592.458 46.5967 592.665 46.6933 592.931 46.76C593.205 46.8267 593.525 46.86 593.891 46.86C594.271 46.86 594.595 46.8267 594.861 46.76C595.128 46.6933 595.331 46.5967 595.471 46.47C595.618 46.3433 595.691 46.1867 595.691 46C595.691 45.8067 595.618 45.6467 595.471 45.52C595.331 45.3933 595.128 45.2967 594.861 45.23C594.595 45.1633 594.271 45.13 593.891 45.13ZM601.79 39.24C602.27 39.24 602.704 39.3367 603.09 39.53C603.477 39.7233 603.78 39.9933 604 40.34C604.22 40.68 604.33 41.0733 604.33 41.52C604.33 41.96 604.22 42.3533 604 42.7C603.78 43.0467 603.477 43.3167 603.09 43.51C602.704 43.7033 602.27 43.8 601.79 43.8C601.304 43.8 600.867 43.7033 600.48 43.51C600.094 43.3167 599.787 43.0467 599.56 42.7C599.34 42.3533 599.23 41.96 599.23 41.52C599.23 41.0733 599.34 40.68 599.56 40.34C599.787 39.9933 600.094 39.7233 600.48 39.53C600.867 39.3367 601.304 39.24 601.79 39.24ZM601.79 40.38C601.55 40.38 601.334 40.4267 601.14 40.52C600.954 40.6067 600.804 40.7367 600.69 40.91C600.584 41.0767 600.53 41.28 600.53 41.52C600.53 41.76 600.584 41.9667 600.69 42.14C600.804 42.3133 600.954 42.4467 601.14 42.54C601.334 42.6267 601.55 42.67 601.79 42.67C602.024 42.67 602.234 42.6267 602.42 42.54C602.607 42.4467 602.754 42.3133 602.86 42.14C602.974 41.9667 603.03 41.76 603.03 41.52C603.03 41.28 602.974 41.0767 602.86 40.91C602.754 40.7367 602.607 40.6067 602.42 40.52C602.234 40.4267 602.024 40.38 601.79 40.38ZM605.2 38.61H606.53V47.9H605.2V38.61ZM599 46.03L598.85 44.95C599.39 44.95 599.987 44.9467 600.64 44.94C601.3 44.9267 601.977 44.9 602.67 44.86C603.37 44.8133 604.047 44.7433 604.7 44.65L604.79 45.61C604.124 45.7433 603.447 45.84 602.76 45.9C602.074 45.9533 601.41 45.99 600.77 46.01C600.13 46.0233 599.54 46.03 599 46.03ZM614.37 38.63H615.7V43.3H614.37V38.63ZM609.53 43.71H615.7V46.22H610.85V47.15H609.54V45.27H614.38V44.73H609.53V43.71ZM609.54 46.79H615.93V47.83H609.54V46.79ZM610.18 38.84H611.28V39.53C611.28 40.0967 611.183 40.6367 610.99 41.15C610.796 41.6633 610.5 42.11 610.1 42.49C609.706 42.87 609.206 43.1533 608.6 43.34L607.96 42.29C608.346 42.17 608.68 42.0133 608.96 41.82C609.24 41.6267 609.47 41.4067 609.65 41.16C609.83 40.9133 609.963 40.6533 610.05 40.38C610.136 40.1 610.18 39.8167 610.18 39.53V38.84ZM610.45 38.84H611.53V39.53C611.53 39.81 611.573 40.0833 611.66 40.35C611.746 40.61 611.876 40.8567 612.05 41.09C612.223 41.3233 612.446 41.53 612.72 41.71C612.993 41.89 613.316 42.0333 613.69 42.14L613.05 43.18C612.61 43.0467 612.226 42.8633 611.9 42.63C611.573 42.39 611.3 42.11 611.08 41.79C610.866 41.4633 610.706 41.11 610.6 40.73C610.5 40.35 610.45 39.95 610.45 39.53V38.84ZM600.903 59L603.918 53.0341V52.9844H600.406V51.7273H605.509V53.0021L602.491 59H600.903Z" fill="#9CA3AF"/>

<!-- 강의실6 -->
<rect x="464.333" y="1" width="92.6667" height="92.359" rx="3" fill="white" stroke="#9CA3AF" stroke-width="2"/>
<path d="M503.561 38.62H504.891V43.98H503.561V38.62ZM504.531 40.78H506.121V41.88H504.531V40.78ZM500.921 39.23H502.351C502.351 40.0567 502.185 40.8 501.851 41.46C501.518 42.1133 501.031 42.67 500.391 43.13C499.758 43.59 498.988 43.9467 498.081 44.2L497.541 43.14C498.281 42.9333 498.901 42.67 499.401 42.35C499.908 42.0233 500.288 41.6533 500.541 41.24C500.795 40.82 500.921 40.37 500.921 39.89V39.23ZM497.971 39.23H501.721V40.29H497.971V39.23ZM501.891 44.1C502.518 44.1 503.065 44.18 503.531 44.34C503.998 44.4933 504.358 44.7133 504.611 45C504.871 45.28 505.001 45.6133 505.001 46C505.001 46.3867 504.871 46.72 504.611 47C504.358 47.2867 503.998 47.5067 503.531 47.66C503.065 47.8133 502.518 47.89 501.891 47.89C501.271 47.89 500.728 47.8133 500.261 47.66C499.795 47.5067 499.431 47.2867 499.171 47C498.911 46.72 498.781 46.3867 498.781 46C498.781 45.6133 498.911 45.28 499.171 45C499.431 44.7133 499.795 44.4933 500.261 44.34C500.728 44.18 501.271 44.1 501.891 44.1ZM501.891 45.13C501.525 45.13 501.205 45.1633 500.931 45.23C500.665 45.2967 500.458 45.3933 500.311 45.52C500.171 45.6467 500.101 45.8067 500.101 46C500.101 46.1867 500.171 46.3433 500.311 46.47C500.458 46.5967 500.665 46.6933 500.931 46.76C501.205 46.8267 501.525 46.86 501.891 46.86C502.271 46.86 502.595 46.8267 502.861 46.76C503.128 46.6933 503.331 46.5967 503.471 46.47C503.618 46.3433 503.691 46.1867 503.691 46C503.691 45.8067 503.618 45.6467 503.471 45.52C503.331 45.3933 503.128 45.2967 502.861 45.23C502.595 45.1633 502.271 45.13 501.891 45.13ZM509.79 39.24C510.27 39.24 510.704 39.3367 511.09 39.53C511.477 39.7233 511.78 39.9933 512 40.34C512.22 40.68 512.33 41.0733 512.33 41.52C512.33 41.96 512.22 42.3533 512 42.7C511.78 43.0467 511.477 43.3167 511.09 43.51C510.704 43.7033 510.27 43.8 509.79 43.8C509.304 43.8 508.867 43.7033 508.48 43.51C508.094 43.3167 507.787 43.0467 507.56 42.7C507.34 42.3533 507.23 41.96 507.23 41.52C507.23 41.0733 507.34 40.68 507.56 40.34C507.787 39.9933 508.094 39.7233 508.48 39.53C508.867 39.3367 509.304 39.24 509.79 39.24ZM509.79 40.38C509.55 40.38 509.334 40.4267 509.14 40.52C508.954 40.6067 508.804 40.7367 508.69 40.91C508.584 41.0767 508.53 41.28 508.53 41.52C508.53 41.76 508.584 41.9667 508.69 42.14C508.804 42.3133 508.954 42.4467 509.14 42.54C509.334 42.6267 509.55 42.67 509.79 42.67C510.024 42.67 510.234 42.6267 510.42 42.54C510.607 42.4467 510.754 42.3133 510.86 42.14C510.974 41.9667 511.03 41.76 511.03 41.52C511.03 41.28 510.974 41.0767 510.86 40.91C510.754 40.7367 510.607 40.6067 510.42 40.52C510.234 40.4267 510.024 40.38 509.79 40.38ZM513.2 38.61H514.53V47.9H513.2V38.61ZM507 46.03L506.85 44.95C507.39 44.95 507.987 44.9467 508.64 44.94C509.3 44.9267 509.977 44.9 510.67 44.86C511.37 44.8133 512.047 44.7433 512.7 44.65L512.79 45.61C512.124 45.7433 511.447 45.84 510.76 45.9C510.074 45.9533 509.41 45.99 508.77 46.01C508.13 46.0233 507.54 46.03 507 46.03ZM522.37 38.63H523.7V43.3H522.37V38.63ZM517.53 43.71H523.7V46.22H518.85V47.15H517.54V45.27H522.38V44.73H517.53V43.71ZM517.54 46.79H523.93V47.83H517.54V46.79ZM518.18 38.84H519.28V39.53C519.28 40.0967 519.183 40.6367 518.99 41.15C518.796 41.6633 518.5 42.11 518.1 42.49C517.706 42.87 517.206 43.1533 516.6 43.34L515.96 42.29C516.346 42.17 516.68 42.0133 516.96 41.82C517.24 41.6267 517.47 41.4067 517.65 41.16C517.83 40.9133 517.963 40.6533 518.05 40.38C518.136 40.1 518.18 39.8167 518.18 39.53V38.84ZM518.45 38.84H519.53V39.53C519.53 39.81 519.573 40.0833 519.66 40.35C519.746 40.61 519.876 40.8567 520.05 41.09C520.223 41.3233 520.446 41.53 520.72 41.71C520.993 41.89 521.316 42.0333 521.69 42.14L521.05 43.18C520.61 43.0467 520.226 42.8633 519.9 42.63C519.573 42.39 519.3 42.11 519.08 41.79C518.866 41.4633 518.706 41.11 518.6 40.73C518.5 40.35 518.45 39.95 518.45 39.53V38.84ZM511.08 59.0994C510.706 59.0971 510.345 59.0343 509.997 58.9112C509.651 58.7881 509.341 58.5881 509.066 58.3111C508.792 58.0341 508.574 57.6671 508.413 57.2102C508.254 56.7533 508.175 56.1922 508.175 55.527C508.177 54.9162 508.247 54.3705 508.385 53.8899C508.524 53.407 508.723 52.9974 508.981 52.6612C509.242 52.325 509.553 52.0694 509.915 51.8942C510.277 51.7166 510.683 51.6278 511.133 51.6278C511.618 51.6278 512.047 51.7225 512.419 51.9119C512.79 52.099 513.089 52.3535 513.314 52.6754C513.541 52.9974 513.678 53.3584 513.725 53.7585H512.209C512.15 53.5052 512.026 53.3063 511.836 53.1619C511.647 53.0175 511.413 52.9453 511.133 52.9453C510.66 52.9453 510.3 53.1513 510.054 53.5632C509.81 53.9751 509.685 54.535 509.681 55.2429H509.73C509.839 55.0275 509.986 54.844 510.171 54.6925C510.358 54.5386 510.57 54.4214 510.806 54.3409C511.046 54.258 511.298 54.2166 511.563 54.2166C511.994 54.2166 512.377 54.3184 512.713 54.522C513.05 54.7232 513.315 55.0002 513.509 55.353C513.703 55.7057 513.8 56.1094 513.8 56.5639C513.8 57.0563 513.685 57.4943 513.456 57.8778C513.228 58.2614 512.91 58.562 512.5 58.7798C512.093 58.9953 511.62 59.1018 511.08 59.0994ZM511.073 57.892C511.31 57.892 511.521 57.8352 511.708 57.7216C511.895 57.608 512.042 57.4541 512.149 57.2599C512.255 57.0658 512.309 56.848 512.309 56.6065C512.309 56.3651 512.255 56.1484 512.149 55.9567C512.045 55.7649 511.9 55.6122 511.716 55.4986C511.531 55.3849 511.32 55.3281 511.083 55.3281C510.906 55.3281 510.741 55.3613 510.59 55.4276C510.441 55.4938 510.309 55.5862 510.196 55.7045C510.084 55.8229 509.997 55.9602 509.933 56.1165C509.869 56.2704 509.837 56.4349 509.837 56.6101C509.837 56.8445 509.89 57.0587 509.997 57.2528C510.106 57.447 510.252 57.602 510.437 57.718C510.624 57.834 510.836 57.892 511.073 57.892Z" fill="#9CA3AF"/>

<!-- 강의실5 -->
<rect x="371.667" y="1" width="92.6667" height="92.359" rx="3" fill="white" stroke="#9CA3AF" stroke-width="2"/>
<path d="M410.561 38.62H411.891V43.98H410.561V38.62ZM411.531 40.78H413.121V41.88H411.531V40.78ZM407.921 39.23H409.351C409.351 40.0567 409.185 40.8 408.851 41.46C408.518 42.1133 408.031 42.67 407.391 43.13C406.758 43.59 405.988 43.9467 405.081 44.2L404.541 43.14C405.281 42.9333 405.901 42.67 406.401 42.35C406.908 42.0233 407.288 41.6533 407.541 41.24C407.795 40.82 407.921 40.37 407.921 39.89V39.23ZM404.971 39.23H408.721V40.29H404.971V39.23ZM408.891 44.1C409.518 44.1 410.065 44.18 410.531 44.34C410.998 44.4933 411.358 44.7133 411.611 45C411.871 45.28 412.001 45.6133 412.001 46C412.001 46.3867 411.871 46.72 411.611 47C411.358 47.2867 410.998 47.5067 410.531 47.66C410.065 47.8133 409.518 47.89 408.891 47.89C408.271 47.89 407.728 47.8133 407.261 47.66C406.795 47.5067 406.431 47.2867 406.171 47C405.911 46.72 405.781 46.3867 405.781 46C405.781 45.6133 405.911 45.28 406.171 45C406.431 44.7133 406.795 44.4933 407.261 44.34C407.728 44.18 408.271 44.1 408.891 44.1ZM408.891 45.13C408.525 45.13 408.205 45.1633 407.931 45.23C407.665 45.2967 407.458 45.3933 407.311 45.52C407.171 45.6467 407.101 45.8067 407.101 46C407.101 46.1867 407.171 46.3433 407.311 46.47C407.458 46.5967 407.665 46.6933 407.931 46.76C408.205 46.8267 408.525 46.86 408.891 46.86C409.271 46.86 409.595 46.8267 409.861 46.76C410.128 46.6933 410.331 46.5967 410.471 46.47C410.618 46.3433 410.691 46.1867 410.691 46C410.691 45.8067 410.618 45.6467 410.471 45.52C410.331 45.3933 410.128 45.2967 409.861 45.23C409.595 45.1633 409.271 45.13 408.891 45.13ZM416.79 39.24C417.27 39.24 417.704 39.3367 418.09 39.53C418.477 39.7233 418.78 39.9933 419 40.34C419.22 40.68 419.33 41.0733 419.33 41.52C419.33 41.96 419.22 42.3533 419 42.7C418.78 43.0467 418.477 43.3167 418.09 43.51C417.704 43.7033 417.27 43.8 416.79 43.8C416.304 43.8 415.867 43.7033 415.48 43.51C415.094 43.3167 414.787 43.0467 414.56 42.7C414.34 42.3533 414.23 41.96 414.23 41.52C414.23 41.0733 414.34 40.68 414.56 40.34C414.787 39.9933 415.094 39.7233 415.48 39.53C415.867 39.3367 416.304 39.24 416.79 39.24ZM416.79 40.38C416.55 40.38 416.334 40.4267 416.14 40.52C415.954 40.6067 415.804 40.7367 415.69 40.91C415.584 41.0767 415.53 41.28 415.53 41.52C415.53 41.76 415.584 41.9667 415.69 42.14C415.804 42.3133 415.954 42.4467 416.14 42.54C416.334 42.6267 416.55 42.67 416.79 42.67C417.024 42.67 417.234 42.6267 417.42 42.54C417.607 42.4467 417.754 42.3133 417.86 42.14C417.974 41.9667 418.03 41.76 418.03 41.52C418.03 41.28 417.974 41.0767 417.86 40.91C417.754 40.7367 417.607 40.6067 417.42 40.52C417.234 40.4267 417.024 40.38 416.79 40.38ZM420.2 38.61H421.53V47.9H420.2V38.61ZM414 46.03L413.85 44.95C414.39 44.95 414.987 44.9467 415.64 44.94C416.3 44.9267 416.977 44.9 417.67 44.86C418.37 44.8133 419.047 44.7433 419.7 44.65L419.79 45.61C419.124 45.7433 418.447 45.84 417.76 45.9C417.074 45.9533 416.41 45.99 415.77 46.01C415.13 46.0233 414.54 46.03 414 46.03ZM429.37 38.63H430.7V43.3H429.37V38.63ZM424.53 43.71H430.7V46.22H425.85V47.15H424.54V45.27H429.38V44.73H424.53V43.71ZM424.54 46.79H430.93V47.83H424.54V46.79ZM425.18 38.84H426.28V39.53C426.28 40.0967 426.183 40.6367 425.99 41.15C425.796 41.6633 425.5 42.11 425.1 42.49C424.706 42.87 424.206 43.1533 423.6 43.34L422.96 42.29C423.346 42.17 423.68 42.0133 423.96 41.82C424.24 41.6267 424.47 41.4067 424.65 41.16C424.83 40.9133 424.963 40.6533 425.05 40.38C425.136 40.1 425.18 39.8167 425.18 39.53V38.84ZM425.45 38.84H426.53V39.53C426.53 39.81 426.573 40.0833 426.66 40.35C426.746 40.61 426.876 40.8567 427.05 41.09C427.223 41.3233 427.446 41.53 427.72 41.71C427.993 41.89 428.316 42.0333 428.69 42.14L428.05 43.18C427.61 43.0467 427.226 42.8633 426.9 42.63C426.573 42.39 426.3 42.11 426.08 41.79C425.866 41.4633 425.706 41.11 425.6 40.73C425.5 40.35 425.45 39.95 425.45 39.53V38.84ZM418.023 59.0994C417.521 59.0994 417.074 59.0071 416.681 58.8224C416.29 58.6378 415.98 58.3833 415.75 58.0589C415.521 57.7346 415.401 57.3629 415.392 56.9439H416.883C416.9 57.2256 417.018 57.4541 417.238 57.6293C417.458 57.8045 417.72 57.892 418.023 57.892C418.265 57.892 418.478 57.8388 418.662 57.7322C418.849 57.6233 418.995 57.473 419.099 57.2812C419.206 57.0871 419.259 56.8646 419.259 56.6136C419.259 56.358 419.204 56.133 419.096 55.9389C418.989 55.7448 418.841 55.5933 418.652 55.4844C418.462 55.3755 418.246 55.3198 418.002 55.3175C417.789 55.3175 417.582 55.3613 417.38 55.4489C417.181 55.5365 417.026 55.656 416.915 55.8075L415.548 55.5625L415.892 51.7273H420.338V52.9844H417.16L416.972 54.8061H417.015C417.142 54.6262 417.335 54.477 417.593 54.3587C417.851 54.2403 418.14 54.1811 418.46 54.1811C418.898 54.1811 419.288 54.2841 419.632 54.4901C419.975 54.696 420.246 54.9789 420.445 55.3388C420.644 55.6963 420.742 56.1082 420.74 56.5746C420.742 57.0646 420.628 57.5002 420.399 57.8814C420.172 58.2602 419.853 58.5585 419.444 58.7763C419.036 58.9917 418.563 59.0994 418.023 59.0994Z" fill="#9CA3AF"/>

<!-- 강의실4 -->
<rect x="279" y="1" width="92.6667" height="92.359" rx="3" fill="white" stroke="#9CA3AF" stroke-width="2"/>
<path d="M317.561 38.62H318.891V43.98H317.561V38.62ZM318.531 40.78H320.121V41.88H318.531V40.78ZM314.921 39.23H316.351C316.351 40.0567 316.185 40.8 315.851 41.46C315.518 42.1133 315.031 42.67 314.391 43.13C313.758 43.59 312.988 43.9467 312.081 44.2L311.541 43.14C312.281 42.9333 312.901 42.67 313.401 42.35C313.908 42.0233 314.288 41.6533 314.541 41.24C314.795 40.82 314.921 40.37 314.921 39.89V39.23ZM311.971 39.23H315.721V40.29H311.971V39.23ZM315.891 44.1C316.518 44.1 317.065 44.18 317.531 44.34C317.998 44.4933 318.358 44.7133 318.611 45C318.871 45.28 319.001 45.6133 319.001 46C319.001 46.3867 318.871 46.72 318.611 47C318.358 47.2867 317.998 47.5067 317.531 47.66C317.065 47.8133 316.518 47.89 315.891 47.89C315.271 47.89 314.728 47.8133 314.261 47.66C313.795 47.5067 313.431 47.2867 313.171 47C312.911 46.72 312.781 46.3867 312.781 46C312.781 45.6133 312.911 45.28 313.171 45C313.431 44.7133 313.795 44.4933 314.261 44.34C314.728 44.18 315.271 44.1 315.891 44.1ZM315.891 45.13C315.525 45.13 315.205 45.1633 314.931 45.23C314.665 45.2967 314.458 45.3933 314.311 45.52C314.171 45.6467 314.101 45.8067 314.101 46C314.101 46.1867 314.171 46.3433 314.311 46.47C314.458 46.5967 314.665 46.6933 314.931 46.76C315.205 46.8267 315.525 46.86 315.891 46.86C316.271 46.86 316.595 46.8267 316.861 46.76C317.128 46.6933 317.331 46.5967 317.471 46.47C317.618 46.3433 317.691 46.1867 317.691 46C317.691 45.8067 317.618 45.6467 317.471 45.52C317.331 45.3933 317.128 45.2967 316.861 45.23C316.595 45.1633 316.271 45.13 315.891 45.13ZM323.79 39.24C324.27 39.24 324.704 39.3367 325.09 39.53C325.477 39.7233 325.78 39.9933 326 40.34C326.22 40.68 326.33 41.0733 326.33 41.52C326.33 41.96 326.22 42.3533 326 42.7C325.78 43.0467 325.477 43.3167 325.09 43.51C324.704 43.7033 324.27 43.8 323.79 43.8C323.304 43.8 322.867 43.7033 322.48 43.51C322.094 43.3167 321.787 43.0467 321.56 42.7C321.34 42.3533 321.23 41.96 321.23 41.52C321.23 41.0733 321.34 40.68 321.56 40.34C321.787 39.9933 322.094 39.7233 322.48 39.53C322.867 39.3367 323.304 39.24 323.79 39.24ZM323.79 40.38C323.55 40.38 323.334 40.4267 323.14 40.52C322.954 40.6067 322.804 40.7367 322.69 40.91C322.584 41.0767 322.53 41.28 322.53 41.52C322.53 41.76 322.584 41.9667 322.69 42.14C322.804 42.3133 322.954 42.4467 323.14 42.54C323.334 42.6267 323.55 42.67 323.79 42.67C324.024 42.67 324.234 42.6267 324.42 42.54C324.607 42.4467 324.754 42.3133 324.86 42.14C324.974 41.9667 325.03 41.76 325.03 41.52C325.03 41.28 324.974 41.0767 324.86 40.91C324.754 40.7367 324.607 40.6067 324.42 40.52C324.234 40.4267 324.024 40.38 323.79 40.38ZM327.2 38.61H328.53V47.9H327.2V38.61ZM321 46.03L320.85 44.95C321.39 44.95 321.987 44.9467 322.64 44.94C323.3 44.9267 323.977 44.9 324.67 44.86C325.37 44.8133 326.047 44.7433 326.7 44.65L326.79 45.61C326.124 45.7433 325.447 45.84 324.76 45.9C324.074 45.9533 323.41 45.99 322.77 46.01C322.13 46.0233 321.54 46.03 321 46.03ZM336.37 38.63H337.7V43.3H336.37V38.63ZM331.53 43.71H337.7V46.22H332.85V47.15H331.54V45.27H336.38V44.73H331.53V43.71ZM331.54 46.79H337.93V47.83H331.54V46.79ZM332.18 38.84H333.28V39.53C333.28 40.0967 333.183 40.6367 332.99 41.15C332.796 41.6633 332.5 42.11 332.1 42.49C331.706 42.87 331.206 43.1533 330.6 43.34L329.96 42.29C330.346 42.17 330.68 42.0133 330.96 41.82C331.24 41.6267 331.47 41.4067 331.65 41.16C331.83 40.9133 331.963 40.6533 332.05 40.38C332.136 40.1 332.18 39.8167 332.18 39.53V38.84ZM332.45 38.84H333.53V39.53C333.53 39.81 333.573 40.0833 333.66 40.35C333.746 40.61 333.876 40.8567 334.05 41.09C334.223 41.3233 334.446 41.53 334.72 41.71C334.993 41.89 335.316 42.0333 335.69 42.14L335.05 43.18C334.61 43.0467 334.226 42.8633 333.9 42.63C333.573 42.39 333.3 42.11 333.08 41.79C332.866 41.4633 332.706 41.11 332.6 40.73C332.5 40.35 332.45 39.95 332.45 39.53V38.84ZM322.091 57.7216V56.5107L325.127 51.7273H326.171V53.4034H325.553L323.639 56.4325V56.4893H327.954V57.7216H322.091ZM325.581 59V57.3523L325.61 56.8161V51.7273H327.052V59H325.581Z" fill="#9CA3AF"/>

<!-- 강의실3 -->
<rect x="186.333" y="1" width="92.6667" height="92.359" rx="3" fill="white" stroke="#9CA3AF" stroke-width="2"/>
<path d="M225.561 38.62H226.891V43.98H225.561V38.62ZM226.531 40.78H228.121V41.88H226.531V40.78ZM222.921 39.23H224.351C224.351 40.0567 224.185 40.8 223.851 41.46C223.518 42.1133 223.031 42.67 222.391 43.13C221.758 43.59 220.988 43.9467 220.081 44.2L219.541 43.14C220.281 42.9333 220.901 42.67 221.401 42.35C221.908 42.0233 222.288 41.6533 222.541 41.24C222.795 40.82 222.921 40.37 222.921 39.89V39.23ZM219.971 39.23H223.721V40.29H219.971V39.23ZM223.891 44.1C224.518 44.1 225.065 44.18 225.531 44.34C225.998 44.4933 226.358 44.7133 226.611 45C226.871 45.28 227.001 45.6133 227.001 46C227.001 46.3867 226.871 46.72 226.611 47C226.358 47.2867 225.998 47.5067 225.531 47.66C225.065 47.8133 224.518 47.89 223.891 47.89C223.271 47.89 222.728 47.8133 222.261 47.66C221.795 47.5067 221.431 47.2867 221.171 47C220.911 46.72 220.781 46.3867 220.781 46C220.781 45.6133 220.911 45.28 221.171 45C221.431 44.7133 221.795 44.4933 222.261 44.34C222.728 44.18 223.271 44.1 223.891 44.1ZM223.891 45.13C223.525 45.13 223.205 45.1633 222.931 45.23C222.665 45.2967 222.458 45.3933 222.311 45.52C222.171 45.6467 222.101 45.8067 222.101 46C222.101 46.1867 222.171 46.3433 222.311 46.47C222.458 46.5967 222.665 46.6933 222.931 46.76C223.205 46.8267 223.525 46.86 223.891 46.86C224.271 46.86 224.595 46.8267 224.861 46.76C225.128 46.6933 225.331 46.5967 225.471 46.47C225.618 46.3433 225.691 46.1867 225.691 46C225.691 45.8067 225.618 45.6467 225.471 45.52C225.331 45.3933 225.128 45.2967 224.861 45.23C224.595 45.1633 224.271 45.13 223.891 45.13ZM231.79 39.24C232.27 39.24 232.704 39.3367 233.09 39.53C233.477 39.7233 233.78 39.9933 234 40.34C234.22 40.68 234.33 41.0733 234.33 41.52C234.33 41.96 234.22 42.3533 234 42.7C233.78 43.0467 233.477 43.3167 233.09 43.51C232.704 43.7033 232.27 43.8 231.79 43.8C231.304 43.8 230.867 43.7033 230.48 43.51C230.094 43.3167 229.787 43.0467 229.56 42.7C229.34 42.3533 229.23 41.96 229.23 41.52C229.23 41.0733 229.34 40.68 229.56 40.34C229.787 39.9933 230.094 39.7233 230.48 39.53C230.867 39.3367 231.304 39.24 231.79 39.24ZM231.79 40.38C231.55 40.38 231.334 40.4267 231.14 40.52C230.954 40.6067 230.804 40.7367 230.69 40.91C230.584 41.0767 230.53 41.28 230.53 41.52C230.53 41.76 230.584 41.9667 230.69 42.14C230.804 42.3133 230.954 42.4467 231.14 42.54C231.334 42.6267 231.55 42.67 231.79 42.67C232.024 42.67 232.234 42.6267 232.42 42.54C232.607 42.4467 232.754 42.3133 232.86 42.14C232.974 41.9667 233.03 41.76 233.03 41.52C233.03 41.28 232.974 41.0767 232.86 40.91C232.754 40.7367 232.607 40.6067 232.42 40.52C232.234 40.4267 232.024 40.38 231.79 40.38ZM235.2 38.61H236.53V47.9H235.2V38.61ZM229 46.03L228.85 44.95C229.39 44.95 229.987 44.9467 230.64 44.94C231.3 44.9267 231.977 44.9 232.67 44.86C233.37 44.8133 234.047 44.7433 234.7 44.65L234.79 45.61C234.124 45.7433 233.447 45.84 232.76 45.9C232.074 45.9533 231.41 45.99 230.77 46.01C230.13 46.0233 229.54 46.03 229 46.03ZM244.37 38.63H245.7V43.3H244.37V38.63ZM239.53 43.71H245.7V46.22H240.85V47.15H239.54V45.27H244.38V44.73H239.53V43.71ZM239.54 46.79H245.93V47.83H239.54V46.79ZM240.18 38.84H241.28V39.53C241.28 40.0967 241.183 40.6367 240.99 41.15C240.796 41.6633 240.5 42.11 240.1 42.49C239.706 42.87 239.206 43.1533 238.6 43.34L237.96 42.29C238.346 42.17 238.68 42.0133 238.96 41.82C239.24 41.6267 239.47 41.4067 239.65 41.16C239.83 40.9133 239.963 40.6533 240.05 40.38C240.136 40.1 240.18 39.8167 240.18 39.53V38.84ZM240.45 38.84H241.53V39.53C241.53 39.81 241.573 40.0833 241.66 40.35C241.746 40.61 241.876 40.8567 242.05 41.09C242.223 41.3233 242.446 41.53 242.72 41.71C242.993 41.89 243.316 42.0333 243.69 42.14L243.05 43.18C242.61 43.0467 242.226 42.8633 241.9 42.63C241.573 42.39 241.3 42.11 241.08 41.79C240.866 41.4633 240.706 41.11 240.6 40.73C240.5 40.35 240.45 39.95 240.45 39.53V38.84ZM232.982 59.0994C232.451 59.0994 231.979 59.0083 231.565 58.826C231.153 58.6413 230.827 58.388 230.588 58.0661C230.352 57.7417 230.23 57.3677 230.223 56.9439H231.771C231.78 57.1214 231.838 57.2777 231.945 57.4126C232.054 57.5452 232.198 57.6482 232.378 57.7216C232.558 57.795 232.76 57.8317 232.985 57.8317C233.22 57.8317 233.427 57.7902 233.607 57.7074C233.787 57.6245 233.928 57.5097 234.029 57.3629C234.131 57.2161 234.182 57.0469 234.182 56.8551C234.182 56.661 234.128 56.4893 234.019 56.3402C233.912 56.1887 233.758 56.0703 233.557 55.9851C233.358 55.8999 233.121 55.8572 232.847 55.8572H232.169V54.728H232.847C233.079 54.728 233.284 54.6877 233.461 54.6072C233.641 54.5268 233.781 54.4155 233.88 54.2734C233.98 54.129 234.029 53.9609 234.029 53.7692C234.029 53.5869 233.986 53.4271 233.898 53.2898C233.813 53.1501 233.692 53.0412 233.536 52.9631C233.382 52.8849 233.202 52.8459 232.996 52.8459C232.788 52.8459 232.597 52.8838 232.424 52.9595C232.251 53.0329 232.113 53.1383 232.009 53.2756C231.905 53.4129 231.849 53.5739 231.842 53.7585H230.368C230.375 53.3395 230.495 52.9702 230.727 52.6506C230.959 52.331 231.271 52.0812 231.664 51.9013C232.06 51.719 232.506 51.6278 233.003 51.6278C233.505 51.6278 233.944 51.719 234.321 51.9013C234.697 52.0836 234.989 52.3298 235.198 52.6399C235.408 52.9477 235.513 53.2933 235.51 53.6768C235.513 54.084 235.386 54.4238 235.13 54.696C234.877 54.9683 234.547 55.1411 234.139 55.2145V55.2713C234.675 55.34 235.082 55.5258 235.361 55.8288C235.643 56.1295 235.782 56.5059 235.78 56.9581C235.782 57.3724 235.663 57.7405 235.421 58.0625C235.182 58.3845 234.852 58.6378 234.431 58.8224C234.009 59.0071 233.526 59.0994 232.982 59.0994Z" fill="#9CA3AF"/>

<!-- 강의실2 -->
<rect x="93.6667" y="1" width="92.6667" height="92.359" rx="3" fill="white" stroke="#9CA3AF" stroke-width="2"/>
<path d="M132.561 38.62H133.891V43.98H132.561V38.62ZM133.531 40.78H135.121V41.88H133.531V40.78ZM129.921 39.23H131.351C131.351 40.0567 131.185 40.8 130.851 41.46C130.518 42.1133 130.031 42.67 129.391 43.13C128.758 43.59 127.988 43.9467 127.081 44.2L126.541 43.14C127.281 42.9333 127.901 42.67 128.401 42.35C128.908 42.0233 129.288 41.6533 129.541 41.24C129.795 40.82 129.921 40.37 129.921 39.89V39.23ZM126.971 39.23H130.721V40.29H126.971V39.23ZM130.891 44.1C131.518 44.1 132.065 44.18 132.531 44.34C132.998 44.4933 133.358 44.7133 133.611 45C133.871 45.28 134.001 45.6133 134.001 46C134.001 46.3867 133.871 46.72 133.611 47C133.358 47.2867 132.998 47.5067 132.531 47.66C132.065 47.8133 131.518 47.89 130.891 47.89C130.271 47.89 129.728 47.8133 129.261 47.66C128.795 47.5067 128.431 47.2867 128.171 47C127.911 46.72 127.781 46.3867 127.781 46C127.781 45.6133 127.911 45.28 128.171 45C128.431 44.7133 128.795 44.4933 129.261 44.34C129.728 44.18 130.271 44.1 130.891 44.1ZM130.891 45.13C130.525 45.13 130.205 45.1633 129.931 45.23C129.665 45.2967 129.458 45.3933 129.311 45.52C129.171 45.6467 129.101 45.8067 129.101 46C129.101 46.1867 129.171 46.3433 129.311 46.47C129.458 46.5967 129.665 46.6933 129.931 46.76C130.205 46.8267 130.525 46.86 130.891 46.86C131.271 46.86 131.595 46.8267 131.861 46.76C132.128 46.6933 132.331 46.5967 132.471 46.47C132.618 46.3433 132.691 46.1867 132.691 46C132.691 45.8067 132.618 45.6467 132.471 45.52C132.331 45.3933 132.128 45.2967 131.861 45.23C131.595 45.1633 131.271 45.13 130.891 45.13ZM138.79 39.24C139.27 39.24 139.704 39.3367 140.09 39.53C140.477 39.7233 140.78 39.9933 141 40.34C141.22 40.68 141.33 41.0733 141.33 41.52C141.33 41.96 141.22 42.3533 141 42.7C140.78 43.0467 140.477 43.3167 140.09 43.51C139.704 43.7033 139.27 43.8 138.79 43.8C138.304 43.8 137.867 43.7033 137.48 43.51C137.094 43.3167 136.787 43.0467 136.56 42.7C136.34 42.3533 136.23 41.96 136.23 41.52C136.23 41.0733 136.34 40.68 136.56 40.34C136.787 39.9933 137.094 39.7233 137.48 39.53C137.867 39.3367 138.304 39.24 138.79 39.24ZM138.79 40.38C138.55 40.38 138.334 40.4267 138.14 40.52C137.954 40.6067 137.804 40.7367 137.69 40.91C137.584 41.0767 137.53 41.28 137.53 41.52C137.53 41.76 137.584 41.9667 137.69 42.14C137.804 42.3133 137.954 42.4467 138.14 42.54C138.334 42.6267 138.55 42.67 138.79 42.67C139.024 42.67 139.234 42.6267 139.42 42.54C139.607 42.4467 139.754 42.3133 139.86 42.14C139.974 41.9667 140.03 41.76 140.03 41.52C140.03 41.28 139.974 41.0767 139.86 40.91C139.754 40.7367 139.607 40.6067 139.42 40.52C139.234 40.4267 139.024 40.38 138.79 40.38ZM142.2 38.61H143.53V47.9H142.2V38.61ZM136 46.03L135.85 44.95C136.39 44.95 136.987 44.9467 137.64 44.94C138.3 44.9267 138.977 44.9 139.67 44.86C140.37 44.8133 141.047 44.7433 141.7 44.65L141.79 45.61C141.124 45.7433 140.447 45.84 139.76 45.9C139.074 45.9533 138.41 45.99 137.77 46.01C137.13 46.0233 136.54 46.03 136 46.03ZM151.37 38.63H152.7V43.3H151.37V38.63ZM146.53 43.71H152.7V46.22H147.85V47.15H146.54V45.27H151.38V44.73H146.53V43.71ZM146.54 46.79H152.93V47.83H146.54V46.79ZM147.18 38.84H148.28V39.53C148.28 40.0967 148.183 40.6367 147.99 41.15C147.796 41.6633 147.5 42.11 147.1 42.49C146.706 42.87 146.206 43.1533 145.6 43.34L144.96 42.29C145.346 42.17 145.68 42.0133 145.96 41.82C146.24 41.6267 146.47 41.4067 146.65 41.16C146.83 40.9133 146.963 40.6533 147.05 40.38C147.136 40.1 147.18 39.8167 147.18 39.53V38.84ZM147.45 38.84H148.53V39.53C148.53 39.81 148.573 40.0833 148.66 40.35C148.746 40.61 148.876 40.8567 149.05 41.09C149.223 41.3233 149.446 41.53 149.72 41.71C149.993 41.89 150.316 42.0333 150.69 42.14L150.05 43.18C149.61 43.0467 149.226 42.8633 148.9 42.63C148.573 42.39 148.3 42.11 148.08 41.79C147.866 41.4633 147.706 41.11 147.6 40.73C147.5 40.35 147.45 39.95 147.45 39.53V38.84ZM137.44 59V57.892L140.029 55.495C140.249 55.282 140.434 55.0902 140.583 54.9197C140.734 54.7493 140.849 54.5824 140.927 54.419C141.005 54.2533 141.044 54.0746 141.044 53.8828C141.044 53.6697 140.996 53.4863 140.899 53.3324C140.802 53.1761 140.669 53.0566 140.501 52.9737C140.333 52.8885 140.142 52.8459 139.929 52.8459C139.707 52.8459 139.513 52.8909 139.347 52.9808C139.181 53.0708 139.053 53.1998 138.964 53.3679C138.874 53.536 138.829 53.736 138.829 53.968H137.369C137.369 53.4922 137.477 53.0791 137.692 52.7287C137.908 52.3783 138.209 52.1072 138.598 51.9155C138.986 51.7237 139.433 51.6278 139.94 51.6278C140.461 51.6278 140.914 51.7202 141.3 51.9048C141.688 52.0871 141.99 52.3404 142.206 52.6648C142.421 52.9891 142.529 53.3608 142.529 53.7798C142.529 54.0545 142.474 54.3255 142.366 54.593C142.259 54.8606 142.068 55.1577 141.794 55.4844C141.519 55.8087 141.132 56.1982 140.633 56.6527L139.571 57.6932V57.7429H142.625V59H137.44Z" fill="#9CA3AF"/>

<!-- 강의실1 -->
<rect x="1" y="1" width="92.6667" height="92.359" rx="3" fill="white" stroke="#9CA3AF" stroke-width="2"/>
<path d="M39.5612 38.62H40.8912V43.98H39.5612V38.62ZM40.5312 40.78H42.1212V41.88H40.5312V40.78ZM36.9212 39.23H38.3512C38.3512 40.0567 38.1845 40.8 37.8512 41.46C37.5178 42.1133 37.0312 42.67 36.3912 43.13C35.7578 43.59 34.9878 43.9467 34.0812 44.2L33.5412 43.14C34.2812 42.9333 34.9012 42.67 35.4012 42.35C35.9078 42.0233 36.2878 41.6533 36.5412 41.24C36.7945 40.82 36.9212 40.37 36.9212 39.89V39.23ZM33.9712 39.23H37.7212V40.29H33.9712V39.23ZM37.8912 44.1C38.5178 44.1 39.0645 44.18 39.5312 44.34C39.9978 44.4933 40.3578 44.7133 40.6112 45C40.8712 45.28 41.0012 45.6133 41.0012 46C41.0012 46.3867 40.8712 46.72 40.6112 47C40.3578 47.2867 39.9978 47.5067 39.5312 47.66C39.0645 47.8133 38.5178 47.89 37.8912 47.89C37.2712 47.89 36.7278 47.8133 36.2612 47.66C35.7945 47.5067 35.4312 47.2867 35.1712 47C34.9112 46.72 34.7812 46.3867 34.7812 46C34.7812 45.6133 34.9112 45.28 35.1712 45C35.4312 44.7133 35.7945 44.4933 36.2612 44.34C36.7278 44.18 37.2712 44.1 37.8912 44.1ZM37.8912 45.13C37.5245 45.13 37.2045 45.1633 36.9312 45.23C36.6645 45.2967 36.4578 45.3933 36.3112 45.52C36.1712 45.6467 36.1012 45.8067 36.1012 46C36.1012 46.1867 36.1712 46.3433 36.3112 46.47C36.4578 46.5967 36.6645 46.6933 36.9312 46.76C37.2045 46.8267 37.5245 46.86 37.8912 46.86C38.2712 46.86 38.5945 46.8267 38.8612 46.76C39.1278 46.6933 39.3312 46.5967 39.4712 46.47C39.6178 46.3433 39.6912 46.1867 39.6912 46C39.6912 45.8067 39.6178 45.6467 39.4712 45.52C39.3312 45.3933 39.1278 45.2967 38.8612 45.23C38.5945 45.1633 38.2712 45.13 37.8912 45.13ZM45.7904 39.24C46.2704 39.24 46.7037 39.3367 47.0904 39.53C47.4771 39.7233 47.7804 39.9933 48.0004 40.34C48.2204 40.68 48.3304 41.0733 48.3304 41.52C48.3304 41.96 48.2204 42.3533 48.0004 42.7C47.7804 43.0467 47.4771 43.3167 47.0904 43.51C46.7037 43.7033 46.2704 43.8 45.7904 43.8C45.3037 43.8 44.8671 43.7033 44.4804 43.51C44.0937 43.3167 43.7871 43.0467 43.5604 42.7C43.3404 42.3533 43.2304 41.96 43.2304 41.52C43.2304 41.0733 43.3404 40.68 43.5604 40.34C43.7871 39.9933 44.0937 39.7233 44.4804 39.53C44.8671 39.3367 45.3037 39.24 45.7904 39.24ZM45.7904 40.38C45.5504 40.38 45.3337 40.4267 45.1404 40.52C44.9537 40.6067 44.8037 40.7367 44.6904 40.91C44.5837 41.0767 44.5304 41.28 44.5304 41.52C44.5304 41.76 44.5837 41.9667 44.6904 42.14C44.8037 42.3133 44.9537 42.4467 45.1404 42.54C45.3337 42.6267 45.5504 42.67 45.7904 42.67C46.0237 42.67 46.2337 42.6267 46.4204 42.54C46.6071 42.4467 46.7537 42.3133 46.8604 42.14C46.9737 41.9667 47.0304 41.76 47.0304 41.52C47.0304 41.28 46.9737 41.0767 46.8604 40.91C46.7537 40.7367 46.6071 40.6067 46.4204 40.52C46.2337 40.4267 46.0237 40.38 45.7904 40.38ZM49.2004 38.61H50.5304V47.9H49.2004V38.61ZM43.0004 46.03L42.8504 44.95C43.3904 44.95 43.9871 44.9467 44.6404 44.94C45.3004 44.9267 45.9771 44.9 46.6704 44.86C47.3704 44.8133 48.0471 44.7433 48.7004 44.65L48.7904 45.61C48.1237 45.7433 47.4471 45.84 46.7604 45.9C46.0737 45.9533 45.4104 45.99 44.7704 46.01C44.1304 46.0233 43.5404 46.03 43.0004 46.03ZM58.3696 38.63H59.6996V43.3H58.3696V38.63ZM53.5296 43.71H59.6996V46.22H54.8496V47.15H53.5396V45.27H58.3796V44.73H53.5296V43.71ZM53.5396 46.79H59.9296V47.83H53.5396V46.79ZM54.1796 38.84H55.2796V39.53C55.2796 40.0967 55.1829 40.6367 54.9896 41.15C54.7963 41.6633 54.4996 42.11 54.0996 42.49C53.7063 42.87 53.2063 43.1533 52.5996 43.34L51.9596 42.29C52.3463 42.17 52.6796 42.0133 52.9596 41.82C53.2396 41.6267 53.4696 41.4067 53.6496 41.16C53.8296 40.9133 53.9629 40.6533 54.0496 40.38C54.1363 40.1 54.1796 39.8167 54.1796 39.53V38.84ZM54.4496 38.84H55.5296V39.53C55.5296 39.81 55.5729 40.0833 55.6596 40.35C55.7463 40.61 55.8763 40.8567 56.0496 41.09C56.2229 41.3233 56.4463 41.53 56.7196 41.71C56.9929 41.89 57.3163 42.0333 57.6896 42.14L57.0496 43.18C56.6096 43.0467 56.2263 42.8633 55.8996 42.63C55.5729 42.39 55.2996 42.11 55.0796 41.79C54.8663 41.4633 54.7063 41.11 54.5996 40.73C54.4996 40.35 54.4496 39.95 54.4496 39.53V38.84ZM48.3073 51.7273V59H46.7696V53.1868H46.727L45.0615 54.2308V52.8672L46.8619 51.7273H48.3073Z" fill="#9CA3AF"/>

<!-- rapa 사무실 -->
<rect x="473.667" y="129.564" width="176" height="56.3846" rx="3" fill="white" stroke="#9CA3AF" stroke-width="2"/>
<path d="M548.553 157V149.727H551.422C551.972 149.727 552.44 149.826 552.829 150.022C553.219 150.216 553.516 150.492 553.72 150.849C553.926 151.205 554.029 151.622 554.029 152.103C554.029 152.586 553.925 153.001 553.716 153.349C553.508 153.695 553.206 153.96 552.811 154.145C552.418 154.33 551.942 154.422 551.383 154.422H549.462V153.186H551.135C551.428 153.186 551.672 153.146 551.866 153.065C552.06 152.985 552.205 152.864 552.299 152.703C552.397 152.542 552.445 152.342 552.445 152.103C552.445 151.862 552.397 151.658 552.299 151.492C552.205 151.326 552.059 151.201 551.863 151.116C551.669 151.028 551.424 150.984 551.128 150.984H550.091V157H548.553ZM552.481 153.69L554.288 157H552.591L550.822 153.69H552.481ZM556.369 157H554.721L557.232 149.727H559.214L561.721 157H560.073L558.251 151.389H558.194L556.369 157ZM556.266 154.141H560.158V155.342H556.266V154.141ZM562.596 157V149.727H565.465C566.017 149.727 566.487 149.833 566.875 150.043C567.263 150.252 567.559 150.542 567.763 150.913C567.969 151.283 568.072 151.709 568.072 152.192C568.072 152.675 567.968 153.101 567.759 153.47C567.551 153.839 567.249 154.127 566.854 154.333C566.461 154.539 565.985 154.642 565.426 154.642H563.597V153.41H565.178C565.474 153.41 565.717 153.359 565.909 153.257C566.103 153.153 566.248 153.01 566.342 152.827C566.439 152.643 566.488 152.431 566.488 152.192C566.488 151.95 566.439 151.74 566.342 151.56C566.248 151.377 566.103 151.237 565.909 151.137C565.715 151.035 565.469 150.984 565.171 150.984H564.134V157H562.596ZM569.484 157H567.837L570.347 149.727H572.329L574.836 157H573.188L571.366 151.389H571.31L569.484 157ZM569.381 154.141H573.273V155.342H569.381V154.141ZM550.191 161.34H551.261V162.68C551.261 163.253 551.211 163.813 551.111 164.36C551.011 164.9 550.855 165.403 550.641 165.87C550.435 166.337 550.171 166.753 549.851 167.12C549.531 167.48 549.155 167.767 548.721 167.98L547.921 166.91C548.315 166.73 548.651 166.49 548.931 166.19C549.218 165.89 549.455 165.55 549.641 165.17C549.828 164.79 549.965 164.39 550.051 163.97C550.145 163.543 550.191 163.113 550.191 162.68V161.34ZM550.451 161.34H551.521V162.68C551.521 163.1 551.561 163.513 551.641 163.92C551.728 164.327 551.858 164.713 552.031 165.08C552.211 165.44 552.435 165.763 552.701 166.05C552.968 166.337 553.288 166.573 553.661 166.76L552.851 167.82C552.438 167.607 552.078 167.327 551.771 166.98C551.471 166.627 551.225 166.223 551.031 165.77C550.838 165.31 550.691 164.82 550.591 164.3C550.498 163.773 550.451 163.233 550.451 162.68V161.34ZM554.021 160.63H555.361V169.89H554.021V160.63ZM555.071 164.19H556.701V165.29H555.071V164.19ZM557.31 165.8H565.69V166.87H557.31V165.8ZM560.8 166.48H562.13V169.89H560.8V166.48ZM558.27 161.08H564.69V164.81H558.27V161.08ZM563.39 162.12H559.58V163.77H563.39V162.12ZM572.87 160.63H574.2V165.3H572.87V160.63ZM568.03 165.71H574.2V168.22H569.35V169.15H568.04V167.27H572.88V166.73H568.03V165.71ZM568.04 168.79H574.43V169.83H568.04V168.79ZM568.68 160.84H569.78V161.53C569.78 162.097 569.683 162.637 569.49 163.15C569.296 163.663 569 164.11 568.6 164.49C568.206 164.87 567.706 165.153 567.1 165.34L566.46 164.29C566.846 164.17 567.18 164.013 567.46 163.82C567.74 163.627 567.97 163.407 568.15 163.16C568.33 162.913 568.463 162.653 568.55 162.38C568.636 162.1 568.68 161.817 568.68 161.53V160.84ZM568.95 160.84H570.03V161.53C570.03 161.81 570.073 162.083 570.16 162.35C570.246 162.61 570.376 162.857 570.55 163.09C570.723 163.323 570.946 163.53 571.22 163.71C571.493 163.89 571.816 164.033 572.19 164.14L571.55 165.18C571.11 165.047 570.726 164.863 570.4 164.63C570.073 164.39 569.8 164.11 569.58 163.79C569.366 163.463 569.206 163.11 569.1 162.73C569 162.35 568.95 161.95 568.95 161.53V160.84Z" fill="#9CA3AF"/>

<!-- 빈방1 -->
<rect x="1" y="189.128" width="148" height="62.8718" rx="3" fill="white" stroke="#9CA3AF" stroke-width="2"/>
<!-- 빈방2 -->
<rect x="178" y="177.038" width="228" height="74.9615" rx="3" fill="white" stroke="#9CA3AF" stroke-width="2"/>
<!-- 빈방3 -->
<rect x="434" y="185.885" width="216" height="66.1154" rx="3" fill="white" stroke="#9CA3AF" stroke-width="2"/>
<!-- 나가는길1 -->
<path d="M162.626 227.758C163.017 228.149 163.65 228.149 164.04 227.758L170.404 221.394C170.795 221.004 170.795 220.371 170.404 219.98C170.014 219.59 169.381 219.59 168.99 219.98L163.333 225.637L157.676 219.98C157.286 219.59 156.653 219.59 156.262 219.98C155.872 220.371 155.872 221.004 156.262 221.394L162.626 227.758ZM163.333 204.641L162.333 204.641L162.333 227.051L163.333 227.051L164.333 227.051L164.333 204.641L163.333 204.641Z" fill="#9CA3AF"/>
<!-- 나가는길2 -->
<path d="M419.293 227.758C419.683 228.149 420.317 228.149 420.707 227.758L427.071 221.394C427.462 221.004 427.462 220.371 427.071 219.98C426.681 219.59 426.047 219.59 425.657 219.98L420 225.637L414.343 219.98C413.953 219.59 413.319 219.59 412.929 219.98C412.538 220.371 412.538 221.004 412.929 221.394L419.293 227.758ZM420 204.641L419 204.641L419 227.051L420 227.051L421 227.051L421 204.641L420 204.641Z" fill="#9CA3AF"/>

<!-- 회의실7 -->
<g id="7" class="clickable hover-fill">
  <rect x="0.75" y="93.75" width="43.5" height="47.5" rx="3.25" fill="white" stroke="#4B5563" stroke-width="1.5"/>
  <path d="M11.1306 115.26H12.4606V116.76H11.1306V115.26ZM15.1806 109.63H16.5106V118.89H15.1806V109.63ZM8.9906 117.35L8.8306 116.27C9.3906 116.27 10.0006 116.267 10.6606 116.26C11.3206 116.253 11.9973 116.23 12.6906 116.19C13.3906 116.15 14.0639 116.087 14.7106 116L14.8006 116.96C14.1273 117.08 13.4473 117.17 12.7606 117.23C12.0806 117.283 11.4206 117.317 10.7806 117.33C10.1406 117.343 9.54394 117.35 8.9906 117.35ZM9.0106 110.65H14.5906V111.69H9.0106V110.65ZM11.8006 112.05C12.2539 112.05 12.6539 112.123 13.0006 112.27C13.3473 112.417 13.6173 112.62 13.8106 112.88C14.0106 113.14 14.1106 113.443 14.1106 113.79C14.1106 114.13 14.0106 114.433 13.8106 114.7C13.6173 114.96 13.3473 115.163 13.0006 115.31C12.6539 115.457 12.2539 115.53 11.8006 115.53C11.3473 115.53 10.9473 115.457 10.6006 115.31C10.2539 115.163 9.9806 114.96 9.7806 114.7C9.58727 114.433 9.4906 114.13 9.4906 113.79C9.4906 113.443 9.58727 113.14 9.7806 112.88C9.9806 112.62 10.2539 112.417 10.6006 112.27C10.9473 112.123 11.3473 112.05 11.8006 112.05ZM11.8006 113.05C11.4939 113.05 11.2439 113.117 11.0506 113.25C10.8573 113.377 10.7606 113.557 10.7606 113.79C10.7606 114.03 10.8573 114.213 11.0506 114.34C11.2439 114.467 11.4939 114.53 11.8006 114.53C12.1073 114.53 12.3573 114.467 12.5506 114.34C12.7439 114.213 12.8406 114.03 12.8406 113.79C12.8406 113.557 12.7439 113.377 12.5506 113.25C12.3573 113.117 12.1073 113.05 11.8006 113.05ZM11.1306 109.66H12.4706V111.25H11.1306V109.66ZM20.9698 110.24C21.4498 110.24 21.8832 110.337 22.2698 110.53C22.6565 110.723 22.9598 110.993 23.1798 111.34C23.3998 111.68 23.5098 112.073 23.5098 112.52C23.5098 112.96 23.3998 113.353 23.1798 113.7C22.9598 114.047 22.6565 114.317 22.2698 114.51C21.8832 114.703 21.4498 114.8 20.9698 114.8C20.4832 114.8 20.0465 114.703 19.6598 114.51C19.2732 114.317 18.9665 114.047 18.7398 113.7C18.5198 113.353 18.4098 112.96 18.4098 112.52C18.4098 112.073 18.5198 111.68 18.7398 111.34C18.9665 110.993 19.2732 110.723 19.6598 110.53C20.0465 110.337 20.4832 110.24 20.9698 110.24ZM20.9698 111.38C20.7298 111.38 20.5132 111.427 20.3198 111.52C20.1332 111.607 19.9832 111.737 19.8698 111.91C19.7632 112.077 19.7098 112.28 19.7098 112.52C19.7098 112.76 19.7632 112.967 19.8698 113.14C19.9832 113.313 20.1332 113.447 20.3198 113.54C20.5132 113.627 20.7298 113.67 20.9698 113.67C21.2032 113.67 21.4132 113.627 21.5998 113.54C21.7865 113.447 21.9332 113.313 22.0398 113.14C22.1532 112.967 22.2098 112.76 22.2098 112.52C22.2098 112.28 22.1532 112.077 22.0398 111.91C21.9332 111.737 21.7865 111.607 21.5998 111.52C21.4132 111.427 21.2032 111.38 20.9698 111.38ZM24.3798 109.61H25.7098V118.9H24.3798V109.61ZM18.1798 117.03L18.0298 115.95C18.5698 115.95 19.1665 115.947 19.8198 115.94C20.4798 115.927 21.1565 115.9 21.8498 115.86C22.5498 115.813 23.2265 115.743 23.8798 115.65L23.9698 116.61C23.3032 116.743 22.6265 116.84 21.9398 116.9C21.2532 116.953 20.5898 116.99 19.9498 117.01C19.3098 117.023 18.7198 117.03 18.1798 117.03ZM33.549 109.63H34.879V114.3H33.549V109.63ZM28.709 114.71H34.879V117.22H30.029V118.15H28.719V116.27H33.559V115.73H28.709V114.71ZM28.719 117.79H35.109V118.83H28.719V117.79ZM29.359 109.84H30.459V110.53C30.459 111.097 30.3624 111.637 30.169 112.15C29.9757 112.663 29.679 113.11 29.279 113.49C28.8857 113.87 28.3857 114.153 27.779 114.34L27.139 113.29C27.5257 113.17 27.859 113.013 28.139 112.82C28.419 112.627 28.649 112.407 28.829 112.16C29.009 111.913 29.1424 111.653 29.229 111.38C29.3157 111.1 29.359 110.817 29.359 110.53V109.84ZM29.629 109.84H30.709V110.53C30.709 110.81 30.7524 111.083 30.839 111.35C30.9257 111.61 31.0557 111.857 31.229 112.09C31.4024 112.323 31.6257 112.53 31.899 112.71C32.1724 112.89 32.4957 113.033 32.869 113.14L32.229 114.18C31.789 114.047 31.4057 113.863 31.079 113.63C30.7524 113.39 30.479 113.11 30.259 112.79C30.0457 112.463 29.8857 112.11 29.779 111.73C29.679 111.35 29.629 110.95 29.629 110.53V109.84ZM20.0829 130L23.0978 124.034V123.984H19.5858V122.727H24.6888V124.002L21.6703 130H20.0829Z" fill="#374151"/>
</g>

<!-- 회의실6 -->
<g id="6" class="clickable hover-fill">
  <rect x="0.75" y="141.109" width="51.8333" height="46.859" rx="3.25" fill="white" stroke="#4B5563" stroke-width="1.5"/>
  <path d="M15.4512 162.26H16.7812V163.76H15.4512V162.26ZM19.5012 156.63H20.8312V165.89H19.5012V156.63ZM13.3112 164.35L13.1512 163.27C13.7112 163.27 14.3212 163.267 14.9812 163.26C15.6412 163.253 16.3178 163.23 17.0112 163.19C17.7112 163.15 18.3845 163.087 19.0312 163L19.1212 163.96C18.4478 164.08 17.7678 164.17 17.0812 164.23C16.4012 164.283 15.7412 164.317 15.1012 164.33C14.4612 164.343 13.8645 164.35 13.3112 164.35ZM13.3312 157.65H18.9112V158.69H13.3312V157.65ZM16.1212 159.05C16.5745 159.05 16.9745 159.123 17.3212 159.27C17.6678 159.417 17.9378 159.62 18.1312 159.88C18.3312 160.14 18.4312 160.443 18.4312 160.79C18.4312 161.13 18.3312 161.433 18.1312 161.7C17.9378 161.96 17.6678 162.163 17.3212 162.31C16.9745 162.457 16.5745 162.53 16.1212 162.53C15.6678 162.53 15.2678 162.457 14.9212 162.31C14.5745 162.163 14.3012 161.96 14.1012 161.7C13.9078 161.433 13.8112 161.13 13.8112 160.79C13.8112 160.443 13.9078 160.14 14.1012 159.88C14.3012 159.62 14.5745 159.417 14.9212 159.27C15.2678 159.123 15.6678 159.05 16.1212 159.05ZM16.1212 160.05C15.8145 160.05 15.5645 160.117 15.3712 160.25C15.1778 160.377 15.0812 160.557 15.0812 160.79C15.0812 161.03 15.1778 161.213 15.3712 161.34C15.5645 161.467 15.8145 161.53 16.1212 161.53C16.4278 161.53 16.6778 161.467 16.8712 161.34C17.0645 161.213 17.1612 161.03 17.1612 160.79C17.1612 160.557 17.0645 160.377 16.8712 160.25C16.6778 160.117 16.4278 160.05 16.1212 160.05ZM15.4512 156.66H16.7912V158.25H15.4512V156.66ZM25.2904 157.24C25.7704 157.24 26.2037 157.337 26.5904 157.53C26.9771 157.723 27.2804 157.993 27.5004 158.34C27.7204 158.68 27.8304 159.073 27.8304 159.52C27.8304 159.96 27.7204 160.353 27.5004 160.7C27.2804 161.047 26.9771 161.317 26.5904 161.51C26.2037 161.703 25.7704 161.8 25.2904 161.8C24.8037 161.8 24.3671 161.703 23.9804 161.51C23.5937 161.317 23.2871 161.047 23.0604 160.7C22.8404 160.353 22.7304 159.96 22.7304 159.52C22.7304 159.073 22.8404 158.68 23.0604 158.34C23.2871 157.993 23.5937 157.723 23.9804 157.53C24.3671 157.337 24.8037 157.24 25.2904 157.24ZM25.2904 158.38C25.0504 158.38 24.8337 158.427 24.6404 158.52C24.4537 158.607 24.3037 158.737 24.1904 158.91C24.0837 159.077 24.0304 159.28 24.0304 159.52C24.0304 159.76 24.0837 159.967 24.1904 160.14C24.3037 160.313 24.4537 160.447 24.6404 160.54C24.8337 160.627 25.0504 160.67 25.2904 160.67C25.5237 160.67 25.7337 160.627 25.9204 160.54C26.1071 160.447 26.2537 160.313 26.3604 160.14C26.4737 159.967 26.5304 159.76 26.5304 159.52C26.5304 159.28 26.4737 159.077 26.3604 158.91C26.2537 158.737 26.1071 158.607 25.9204 158.52C25.7337 158.427 25.5237 158.38 25.2904 158.38ZM28.7004 156.61H30.0304V165.9H28.7004V156.61ZM22.5004 164.03L22.3504 162.95C22.8904 162.95 23.4871 162.947 24.1404 162.94C24.8004 162.927 25.4771 162.9 26.1704 162.86C26.8704 162.813 27.5471 162.743 28.2004 162.65L28.2904 163.61C27.6237 163.743 26.9471 163.84 26.2604 163.9C25.5737 163.953 24.9104 163.99 24.2704 164.01C23.6304 164.023 23.0404 164.03 22.5004 164.03ZM37.8696 156.63H39.1996V161.3H37.8696V156.63ZM33.0296 161.71H39.1996V164.22H34.3496V165.15H33.0396V163.27H37.8796V162.73H33.0296V161.71ZM33.0396 164.79H39.4296V165.83H33.0396V164.79ZM33.6796 156.84H34.7796V157.53C34.7796 158.097 34.6829 158.637 34.4896 159.15C34.2963 159.663 33.9996 160.11 33.5996 160.49C33.2063 160.87 32.7063 161.153 32.0996 161.34L31.4596 160.29C31.8463 160.17 32.1796 160.013 32.4596 159.82C32.7396 159.627 32.9696 159.407 33.1496 159.16C33.3296 158.913 33.4629 158.653 33.5496 158.38C33.6363 158.1 33.6796 157.817 33.6796 157.53V156.84ZM33.9496 156.84H35.0296V157.53C35.0296 157.81 35.0729 158.083 35.1596 158.35C35.2463 158.61 35.3763 158.857 35.5496 159.09C35.7229 159.323 35.9463 159.53 36.2196 159.71C36.4929 159.89 36.8163 160.033 37.1896 160.14L36.5496 161.18C36.1096 161.047 35.7263 160.863 35.3996 160.63C35.0729 160.39 34.7996 160.11 34.5796 159.79C34.3663 159.463 34.2063 159.11 34.0996 158.73C33.9996 158.35 33.9496 157.95 33.9496 157.53V156.84ZM26.5799 177.099C26.2058 177.097 25.8448 177.034 25.4968 176.911C25.1512 176.788 24.841 176.588 24.5664 176.311C24.2918 176.034 24.074 175.667 23.913 175.21C23.7544 174.753 23.6751 174.192 23.6751 173.527C23.6774 172.916 23.7473 172.371 23.8846 171.89C24.0243 171.407 24.2231 170.997 24.4812 170.661C24.7416 170.325 25.0529 170.069 25.4151 169.894C25.7773 169.717 26.1834 169.628 26.6332 169.628C27.1185 169.628 27.547 169.723 27.9187 169.912C28.2904 170.099 28.5887 170.353 28.8136 170.675C29.0408 170.997 29.1781 171.358 29.2255 171.759H27.7092C27.65 171.505 27.5257 171.306 27.3363 171.162C27.1469 171.018 26.9125 170.945 26.6332 170.945C26.1597 170.945 25.7998 171.151 25.5536 171.563C25.3098 171.975 25.1855 172.535 25.1808 173.243H25.2305C25.3394 173.027 25.4862 172.844 25.6708 172.692C25.8578 172.539 26.0697 172.421 26.3065 172.341C26.5456 172.258 26.7977 172.217 27.0629 172.217C27.4937 172.217 27.8772 172.318 28.2134 172.522C28.5496 172.723 28.8147 173 29.0089 173.353C29.203 173.706 29.3001 174.109 29.3001 174.564C29.3001 175.056 29.1853 175.494 28.9556 175.878C28.7283 176.261 28.4099 176.562 28.0004 176.78C27.5932 176.995 27.1197 177.102 26.5799 177.099ZM26.5728 175.892C26.8095 175.892 27.0214 175.835 27.2085 175.722C27.3955 175.608 27.5423 175.454 27.6488 175.26C27.7553 175.066 27.8086 174.848 27.8086 174.607C27.8086 174.365 27.7553 174.148 27.6488 173.957C27.5446 173.765 27.4002 173.612 27.2156 173.499C27.0309 173.385 26.8202 173.328 26.5835 173.328C26.4059 173.328 26.2414 173.361 26.0898 173.428C25.9407 173.494 25.8093 173.586 25.6957 173.705C25.5844 173.823 25.4968 173.96 25.4329 174.116C25.369 174.27 25.337 174.435 25.337 174.61C25.337 174.844 25.3903 175.059 25.4968 175.253C25.6057 175.447 25.7525 175.602 25.9371 175.718C26.1242 175.834 26.3361 175.892 26.5728 175.892Z" fill="#374151"/>
</g>

<!-- 회의실5 -->
<g id="5" class="clickable hover-fill">
  <rect x="53.4167" y="141.109" width="42.5" height="46.859" rx="3.25" fill="white" stroke="#4B5563" stroke-width="1.5"/>
  <path d="M63.4512 162.26H64.7812V163.76H63.4512V162.26ZM67.5012 156.63H68.8312V165.89H67.5012V156.63ZM61.3112 164.35L61.1512 163.27C61.7112 163.27 62.3212 163.267 62.9812 163.26C63.6412 163.253 64.3178 163.23 65.0112 163.19C65.7112 163.15 66.3845 163.087 67.0312 163L67.1212 163.96C66.4478 164.08 65.7678 164.17 65.0812 164.23C64.4012 164.283 63.7412 164.317 63.1012 164.33C62.4612 164.343 61.8645 164.35 61.3112 164.35ZM61.3312 157.65H66.9112V158.69H61.3312V157.65ZM64.1212 159.05C64.5745 159.05 64.9745 159.123 65.3212 159.27C65.6678 159.417 65.9378 159.62 66.1312 159.88C66.3312 160.14 66.4312 160.443 66.4312 160.79C66.4312 161.13 66.3312 161.433 66.1312 161.7C65.9378 161.96 65.6678 162.163 65.3212 162.31C64.9745 162.457 64.5745 162.53 64.1212 162.53C63.6678 162.53 63.2678 162.457 62.9212 162.31C62.5745 162.163 62.3012 161.96 62.1012 161.7C61.9078 161.433 61.8112 161.13 61.8112 160.79C61.8112 160.443 61.9078 160.14 62.1012 159.88C62.3012 159.62 62.5745 159.417 62.9212 159.27C63.2678 159.123 63.6678 159.05 64.1212 159.05ZM64.1212 160.05C63.8145 160.05 63.5645 160.117 63.3712 160.25C63.1778 160.377 63.0812 160.557 63.0812 160.79C63.0812 161.03 63.1778 161.213 63.3712 161.34C63.5645 161.467 63.8145 161.53 64.1212 161.53C64.4278 161.53 64.6778 161.467 64.8712 161.34C65.0645 161.213 65.1612 161.03 65.1612 160.79C65.1612 160.557 65.0645 160.377 64.8712 160.25C64.6778 160.117 64.4278 160.05 64.1212 160.05ZM63.4512 156.66H64.7912V158.25H63.4512V156.66ZM73.2904 157.24C73.7704 157.24 74.2037 157.337 74.5904 157.53C74.9771 157.723 75.2804 157.993 75.5004 158.34C75.7204 158.68 75.8304 159.073 75.8304 159.52C75.8304 159.96 75.7204 160.353 75.5004 160.7C75.2804 161.047 74.9771 161.317 74.5904 161.51C74.2037 161.703 73.7704 161.8 73.2904 161.8C72.8037 161.8 72.3671 161.703 71.9804 161.51C71.5937 161.317 71.2871 161.047 71.0604 160.7C70.8404 160.353 70.7304 159.96 70.7304 159.52C70.7304 159.073 70.8404 158.68 71.0604 158.34C71.2871 157.993 71.5937 157.723 71.9804 157.53C72.3671 157.337 72.8037 157.24 73.2904 157.24ZM73.2904 158.38C73.0504 158.38 72.8337 158.427 72.6404 158.52C72.4537 158.607 72.3037 158.737 72.1904 158.91C72.0837 159.077 72.0304 159.28 72.0304 159.52C72.0304 159.76 72.0837 159.967 72.1904 160.14C72.3037 160.313 72.4537 160.447 72.6404 160.54C72.8337 160.627 73.0504 160.67 73.2904 160.67C73.5237 160.67 73.7337 160.627 73.9204 160.54C74.1071 160.447 74.2537 160.313 74.3604 160.14C74.4737 159.967 74.5304 159.76 74.5304 159.52C74.5304 159.28 74.4737 159.077 74.3604 158.91C74.2537 158.737 74.1071 158.607 73.9204 158.52C73.7337 158.427 73.5237 158.38 73.2904 158.38ZM76.7004 156.61H78.0304V165.9H76.7004V156.61ZM70.5004 164.03L70.3504 162.95C70.8904 162.95 71.4871 162.947 72.1404 162.94C72.8004 162.927 73.4771 162.9 74.1704 162.86C74.8704 162.813 75.5471 162.743 76.2004 162.65L76.2904 163.61C75.6237 163.743 74.9471 163.84 74.2604 163.9C73.5737 163.953 72.9104 163.99 72.2704 164.01C71.6304 164.023 71.0404 164.03 70.5004 164.03ZM85.8696 156.63H87.1996V161.3H85.8696V156.63ZM81.0296 161.71H87.1996V164.22H82.3496V165.15H81.0396V163.27H85.8796V162.73H81.0296V161.71ZM81.0396 164.79H87.4296V165.83H81.0396V164.79ZM81.6796 156.84H82.7796V157.53C82.7796 158.097 82.6829 158.637 82.4896 159.15C82.2963 159.663 81.9996 160.11 81.5996 160.49C81.2063 160.87 80.7063 161.153 80.0996 161.34L79.4596 160.29C79.8463 160.17 80.1796 160.013 80.4596 159.82C80.7396 159.627 80.9696 159.407 81.1496 159.16C81.3296 158.913 81.4629 158.653 81.5496 158.38C81.6363 158.1 81.6796 157.817 81.6796 157.53V156.84ZM81.9496 156.84H83.0296V157.53C83.0296 157.81 83.0729 158.083 83.1596 158.35C83.2463 158.61 83.3763 158.857 83.5496 159.09C83.7229 159.323 83.9463 159.53 84.2196 159.71C84.4929 159.89 84.8163 160.033 85.1896 160.14L84.5496 161.18C84.1096 161.047 83.7263 160.863 83.3996 160.63C83.0729 160.39 82.7996 160.11 82.5796 159.79C82.3663 159.463 82.2063 159.11 82.0996 158.73C81.9996 158.35 81.9496 157.95 81.9496 157.53V156.84ZM74.5231 177.099C74.0212 177.099 73.5737 177.007 73.1808 176.822C72.7901 176.638 72.48 176.383 72.2504 176.059C72.0207 175.735 71.9012 175.363 71.8917 174.944H73.3832C73.3997 175.226 73.5181 175.454 73.7383 175.629C73.9585 175.804 74.2201 175.892 74.5231 175.892C74.7646 175.892 74.9776 175.839 75.1623 175.732C75.3493 175.623 75.4949 175.473 75.5991 175.281C75.7056 175.087 75.7589 174.865 75.7589 174.614C75.7589 174.358 75.7044 174.133 75.5955 173.939C75.489 173.745 75.341 173.593 75.1516 173.484C74.9622 173.375 74.7456 173.32 74.5018 173.317C74.2887 173.317 74.0816 173.361 73.8803 173.449C73.6815 173.536 73.5264 173.656 73.4151 173.808L72.0479 173.562L72.3924 169.727H76.8384V170.984H73.6602L73.4719 172.806H73.5146C73.6424 172.626 73.8353 172.477 74.0934 172.359C74.3514 172.24 74.6403 172.181 74.9599 172.181C75.3978 172.181 75.7885 172.284 76.1317 172.49C76.475 172.696 76.7461 172.979 76.945 173.339C77.1438 173.696 77.2421 174.108 77.2397 174.575C77.2421 175.065 77.1284 175.5 76.8988 175.881C76.6715 176.26 76.3531 176.558 75.9435 176.776C75.5363 176.992 75.0629 177.099 74.5231 177.099Z" fill="#374151"/>
</g>

<!-- 회의실4 -->
<g id="4" class="clickable hover-fill">
  <rect x="177.417" y="132.263" width="42.5" height="43.9103" rx="3.25" fill="white" stroke="#4B5563" stroke-width="1.5"/>
  <path d="M187.951 152.337H189.281V153.837H187.951V152.337ZM192.001 146.707H193.331V155.967H192.001V146.707ZM185.811 154.427L185.651 153.347C186.211 153.347 186.821 153.344 187.481 153.337C188.141 153.33 188.818 153.307 189.511 153.267C190.211 153.227 190.885 153.164 191.531 153.077L191.621 154.037C190.948 154.157 190.268 154.247 189.581 154.307C188.901 154.36 188.241 154.394 187.601 154.407C186.961 154.42 186.365 154.427 185.811 154.427ZM185.831 147.727H191.411V148.767H185.831V147.727ZM188.621 149.127C189.075 149.127 189.475 149.2 189.821 149.347C190.168 149.494 190.438 149.697 190.631 149.957C190.831 150.217 190.931 150.52 190.931 150.867C190.931 151.207 190.831 151.51 190.631 151.777C190.438 152.037 190.168 152.24 189.821 152.387C189.475 152.534 189.075 152.607 188.621 152.607C188.168 152.607 187.768 152.534 187.421 152.387C187.075 152.24 186.801 152.037 186.601 151.777C186.408 151.51 186.311 151.207 186.311 150.867C186.311 150.52 186.408 150.217 186.601 149.957C186.801 149.697 187.075 149.494 187.421 149.347C187.768 149.2 188.168 149.127 188.621 149.127ZM188.621 150.127C188.315 150.127 188.065 150.194 187.871 150.327C187.678 150.454 187.581 150.634 187.581 150.867C187.581 151.107 187.678 151.29 187.871 151.417C188.065 151.544 188.315 151.607 188.621 151.607C188.928 151.607 189.178 151.544 189.371 151.417C189.565 151.29 189.661 151.107 189.661 150.867C189.661 150.634 189.565 150.454 189.371 150.327C189.178 150.194 188.928 150.127 188.621 150.127ZM187.951 146.737H189.291V148.327H187.951V146.737ZM197.79 147.317C198.27 147.317 198.704 147.414 199.09 147.607C199.477 147.8 199.78 148.07 200 148.417C200.22 148.757 200.33 149.15 200.33 149.597C200.33 150.037 200.22 150.43 200 150.777C199.78 151.124 199.477 151.394 199.09 151.587C198.704 151.78 198.27 151.877 197.79 151.877C197.304 151.877 196.867 151.78 196.48 151.587C196.094 151.394 195.787 151.124 195.56 150.777C195.34 150.43 195.23 150.037 195.23 149.597C195.23 149.15 195.34 148.757 195.56 148.417C195.787 148.07 196.094 147.8 196.48 147.607C196.867 147.414 197.304 147.317 197.79 147.317ZM197.79 148.457C197.55 148.457 197.334 148.504 197.14 148.597C196.954 148.684 196.804 148.814 196.69 148.987C196.584 149.154 196.53 149.357 196.53 149.597C196.53 149.837 196.584 150.044 196.69 150.217C196.804 150.39 196.954 150.524 197.14 150.617C197.334 150.704 197.55 150.747 197.79 150.747C198.024 150.747 198.234 150.704 198.42 150.617C198.607 150.524 198.754 150.39 198.86 150.217C198.974 150.044 199.03 149.837 199.03 149.597C199.03 149.357 198.974 149.154 198.86 148.987C198.754 148.814 198.607 148.684 198.42 148.597C198.234 148.504 198.024 148.457 197.79 148.457ZM201.2 146.687H202.53V155.977H201.2V146.687ZM195 154.107L194.85 153.027C195.39 153.027 195.987 153.024 196.64 153.017C197.3 153.004 197.977 152.977 198.67 152.937C199.37 152.89 200.047 152.82 200.7 152.727L200.79 153.687C200.124 153.82 199.447 153.917 198.76 153.977C198.074 154.03 197.41 154.067 196.77 154.087C196.13 154.1 195.54 154.107 195 154.107ZM210.37 146.707H211.7V151.377H210.37V146.707ZM205.53 151.787H211.7V154.297H206.85V155.227H205.54V153.347H210.38V152.807H205.53V151.787ZM205.54 154.867H211.93V155.907H205.54V154.867ZM206.18 146.917H207.28V147.607C207.28 148.174 207.183 148.714 206.99 149.227C206.796 149.74 206.5 150.187 206.1 150.567C205.706 150.947 205.206 151.23 204.6 151.417L203.96 150.367C204.346 150.247 204.68 150.09 204.96 149.897C205.24 149.704 205.47 149.484 205.65 149.237C205.83 148.99 205.963 148.73 206.05 148.457C206.136 148.177 206.18 147.894 206.18 147.607V146.917ZM206.45 146.917H207.53V147.607C207.53 147.887 207.573 148.16 207.66 148.427C207.746 148.687 207.876 148.934 208.05 149.167C208.223 149.4 208.446 149.607 208.72 149.787C208.993 149.967 209.316 150.11 209.69 150.217L209.05 151.257C208.61 151.124 208.226 150.94 207.9 150.707C207.573 150.467 207.3 150.187 207.08 149.867C206.866 149.54 206.706 149.187 206.6 148.807C206.5 148.427 206.45 148.027 206.45 147.607V146.917ZM196.091 165.799V164.588L199.127 159.804H200.171V161.48H199.553L197.639 164.509V164.566H201.954V165.799H196.091ZM199.581 167.077V165.429L199.61 164.893V159.804H201.052V167.077H199.581Z" fill="#374151"/>
</g>

<!-- 회의실3 -->
<g id="3" class="clickable hover-fill">
  <rect x="220.75" y="132.263" width="42.5" height="43.9103" rx="3.25" fill="white" stroke="#4B5563" stroke-width="1.5"/>
  <path d="M230.618 152.337H231.948V153.837H230.618V152.337ZM234.668 146.707H235.998V155.967H234.668V146.707ZM228.478 154.427L228.318 153.347C228.878 153.347 229.488 153.344 230.148 153.337C230.808 153.33 231.485 153.307 232.178 153.267C232.878 153.227 233.551 153.164 234.198 153.077L234.288 154.037C233.615 154.157 232.935 154.247 232.248 154.307C231.568 154.36 230.908 154.394 230.268 154.407C229.628 154.42 229.031 154.427 228.478 154.427ZM228.498 147.727H234.078V148.767H228.498V147.727ZM231.288 149.127C231.741 149.127 232.141 149.2 232.488 149.347C232.835 149.494 233.105 149.697 233.298 149.957C233.498 150.217 233.598 150.52 233.598 150.867C233.598 151.207 233.498 151.51 233.298 151.777C233.105 152.037 232.835 152.24 232.488 152.387C232.141 152.534 231.741 152.607 231.288 152.607C230.835 152.607 230.435 152.534 230.088 152.387C229.741 152.24 229.468 152.037 229.268 151.777C229.075 151.51 228.978 151.207 228.978 150.867C228.978 150.52 229.075 150.217 229.268 149.957C229.468 149.697 229.741 149.494 230.088 149.347C230.435 149.2 230.835 149.127 231.288 149.127ZM231.288 150.127C230.981 150.127 230.731 150.194 230.538 150.327C230.345 150.454 230.248 150.634 230.248 150.867C230.248 151.107 230.345 151.29 230.538 151.417C230.731 151.544 230.981 151.607 231.288 151.607C231.595 151.607 231.845 151.544 232.038 151.417C232.231 151.29 232.328 151.107 232.328 150.867C232.328 150.634 232.231 150.454 232.038 150.327C231.845 150.194 231.595 150.127 231.288 150.127ZM230.618 146.737H231.958V148.327H230.618V146.737ZM240.457 147.317C240.937 147.317 241.37 147.414 241.757 147.607C242.144 147.8 242.447 148.07 242.667 148.417C242.887 148.757 242.997 149.15 242.997 149.597C242.997 150.037 242.887 150.43 242.667 150.777C242.447 151.124 242.144 151.394 241.757 151.587C241.37 151.78 240.937 151.877 240.457 151.877C239.97 151.877 239.534 151.78 239.147 151.587C238.76 151.394 238.454 151.124 238.227 150.777C238.007 150.43 237.897 150.037 237.897 149.597C237.897 149.15 238.007 148.757 238.227 148.417C238.454 148.07 238.76 147.8 239.147 147.607C239.534 147.414 239.97 147.317 240.457 147.317ZM240.457 148.457C240.217 148.457 240 148.504 239.807 148.597C239.62 148.684 239.47 148.814 239.357 148.987C239.25 149.154 239.197 149.357 239.197 149.597C239.197 149.837 239.25 150.044 239.357 150.217C239.47 150.39 239.62 150.524 239.807 150.617C240 150.704 240.217 150.747 240.457 150.747C240.69 150.747 240.9 150.704 241.087 150.617C241.274 150.524 241.42 150.39 241.527 150.217C241.64 150.044 241.697 149.837 241.697 149.597C241.697 149.357 241.64 149.154 241.527 148.987C241.42 148.814 241.274 148.684 241.087 148.597C240.9 148.504 240.69 148.457 240.457 148.457ZM243.867 146.687H245.197V155.977H243.867V146.687ZM237.667 154.107L237.517 153.027C238.057 153.027 238.654 153.024 239.307 153.017C239.967 153.004 240.644 152.977 241.337 152.937C242.037 152.89 242.714 152.82 243.367 152.727L243.457 153.687C242.79 153.82 242.114 153.917 241.427 153.977C240.74 154.03 240.077 154.067 239.437 154.087C238.797 154.1 238.207 154.107 237.667 154.107ZM253.036 146.707H254.366V151.377H253.036V146.707ZM248.196 151.787H254.366V154.297H249.516V155.227H248.206V153.347H253.046V152.807H248.196V151.787ZM248.206 154.867H254.596V155.907H248.206V154.867ZM248.846 146.917H249.946V147.607C249.946 148.174 249.85 148.714 249.656 149.227C249.463 149.74 249.166 150.187 248.766 150.567C248.373 150.947 247.873 151.23 247.266 151.417L246.626 150.367C247.013 150.247 247.346 150.09 247.626 149.897C247.906 149.704 248.136 149.484 248.316 149.237C248.496 148.99 248.63 148.73 248.716 148.457C248.803 148.177 248.846 147.894 248.846 147.607V146.917ZM249.116 146.917H250.196V147.607C250.196 147.887 250.24 148.16 250.326 148.427C250.413 148.687 250.543 148.934 250.716 149.167C250.89 149.4 251.113 149.607 251.386 149.787C251.66 149.967 251.983 150.11 252.356 150.217L251.716 151.257C251.276 151.124 250.893 150.94 250.566 150.707C250.24 150.467 249.966 150.187 249.746 149.867C249.533 149.54 249.373 149.187 249.266 148.807C249.166 148.427 249.116 148.027 249.116 147.607V146.917ZM241.648 167.176C241.118 167.176 240.646 167.085 240.232 166.903C239.82 166.718 239.494 166.465 239.255 166.143C239.018 165.819 238.896 165.445 238.889 165.021H240.438C240.447 165.198 240.505 165.355 240.612 165.49C240.72 165.622 240.865 165.725 241.045 165.799C241.225 165.872 241.427 165.909 241.652 165.909C241.886 165.909 242.094 165.867 242.273 165.784C242.453 165.701 242.594 165.587 242.696 165.44C242.798 165.293 242.849 165.124 242.849 164.932C242.849 164.738 242.794 164.566 242.685 164.417C242.579 164.266 242.425 164.147 242.224 164.062C242.025 163.977 241.788 163.934 241.514 163.934H240.835V162.805H241.514C241.746 162.805 241.95 162.765 242.128 162.684C242.308 162.604 242.447 162.492 242.547 162.35C242.646 162.206 242.696 162.038 242.696 161.846C242.696 161.664 242.652 161.504 242.565 161.367C242.479 161.227 242.359 161.118 242.202 161.04C242.049 160.962 241.869 160.923 241.663 160.923C241.454 160.923 241.264 160.961 241.091 161.036C240.918 161.11 240.78 161.215 240.675 161.353C240.571 161.49 240.516 161.651 240.509 161.835H239.035C239.042 161.416 239.161 161.047 239.393 160.728C239.626 160.408 239.938 160.158 240.331 159.978C240.726 159.796 241.173 159.705 241.67 159.705C242.172 159.705 242.611 159.796 242.987 159.978C243.364 160.161 243.656 160.407 243.864 160.717C244.075 161.025 244.179 161.37 244.177 161.754C244.179 162.161 244.053 162.501 243.797 162.773C243.544 163.045 243.213 163.218 242.806 163.291V163.348C243.341 163.417 243.748 163.603 244.028 163.906C244.309 164.206 244.449 164.583 244.447 165.035C244.449 165.449 244.33 165.817 244.088 166.139C243.849 166.461 243.519 166.715 243.097 166.899C242.676 167.084 242.193 167.176 241.648 167.176Z" fill="#374151"/>
</g>


<!-- 회의실2 -->
<g id="2" class="clickable hover-fill">
  <rect x="278.75" y="132.263" width="42.5" height="43.9103" rx="3.25" fill="white" stroke="#4B5563" stroke-width="1.5"/>
  <path d="M288.618 152.337H289.948V153.837H288.618V152.337ZM292.668 146.707H293.998V155.967H292.668V146.707ZM286.478 154.427L286.318 153.347C286.878 153.347 287.488 153.344 288.148 153.337C288.808 153.33 289.485 153.307 290.178 153.267C290.878 153.227 291.551 153.164 292.198 153.077L292.288 154.037C291.615 154.157 290.935 154.247 290.248 154.307C289.568 154.36 288.908 154.394 288.268 154.407C287.628 154.42 287.031 154.427 286.478 154.427ZM286.498 147.727H292.078V148.767H286.498V147.727ZM289.288 149.127C289.741 149.127 290.141 149.2 290.488 149.347C290.835 149.494 291.105 149.697 291.298 149.957C291.498 150.217 291.598 150.52 291.598 150.867C291.598 151.207 291.498 151.51 291.298 151.777C291.105 152.037 290.835 152.24 290.488 152.387C290.141 152.534 289.741 152.607 289.288 152.607C288.835 152.607 288.435 152.534 288.088 152.387C287.741 152.24 287.468 152.037 287.268 151.777C287.075 151.51 286.978 151.207 286.978 150.867C286.978 150.52 287.075 150.217 287.268 149.957C287.468 149.697 287.741 149.494 288.088 149.347C288.435 149.2 288.835 149.127 289.288 149.127ZM289.288 150.127C288.981 150.127 288.731 150.194 288.538 150.327C288.345 150.454 288.248 150.634 288.248 150.867C288.248 151.107 288.345 151.29 288.538 151.417C288.731 151.544 288.981 151.607 289.288 151.607C289.595 151.607 289.845 151.544 290.038 151.417C290.231 151.29 290.328 151.107 290.328 150.867C290.328 150.634 290.231 150.454 290.038 150.327C289.845 150.194 289.595 150.127 289.288 150.127ZM288.618 146.737H289.958V148.327H288.618V146.737ZM298.457 147.317C298.937 147.317 299.37 147.414 299.757 147.607C300.144 147.8 300.447 148.07 300.667 148.417C300.887 148.757 300.997 149.15 300.997 149.597C300.997 150.037 300.887 150.43 300.667 150.777C300.447 151.124 300.144 151.394 299.757 151.587C299.37 151.78 298.937 151.877 298.457 151.877C297.97 151.877 297.534 151.78 297.147 151.587C296.76 151.394 296.454 151.124 296.227 150.777C296.007 150.43 295.897 150.037 295.897 149.597C295.897 149.15 296.007 148.757 296.227 148.417C296.454 148.07 296.76 147.8 297.147 147.607C297.534 147.414 297.97 147.317 298.457 147.317ZM298.457 148.457C298.217 148.457 298 148.504 297.807 148.597C297.62 148.684 297.47 148.814 297.357 148.987C297.25 149.154 297.197 149.357 297.197 149.597C297.197 149.837 297.25 150.044 297.357 150.217C297.47 150.39 297.62 150.524 297.807 150.617C298 150.704 298.217 150.747 298.457 150.747C298.69 150.747 298.9 150.704 299.087 150.617C299.274 150.524 299.42 150.39 299.527 150.217C299.64 150.044 299.697 149.837 299.697 149.597C299.697 149.357 299.64 149.154 299.527 148.987C299.42 148.814 299.274 148.684 299.087 148.597C298.9 148.504 298.69 148.457 298.457 148.457ZM301.867 146.687H303.197V155.977H301.867V146.687ZM295.667 154.107L295.517 153.027C296.057 153.027 296.654 153.024 297.307 153.017C297.967 153.004 298.644 152.977 299.337 152.937C300.037 152.89 300.714 152.82 301.367 152.727L301.457 153.687C300.79 153.82 300.114 153.917 299.427 153.977C298.74 154.03 298.077 154.067 297.437 154.087C296.797 154.1 296.207 154.107 295.667 154.107ZM311.036 146.707H312.366V151.377H311.036V146.707ZM306.196 151.787H312.366V154.297H307.516V155.227H306.206V153.347H311.046V152.807H306.196V151.787ZM306.206 154.867H312.596V155.907H306.206V154.867ZM306.846 146.917H307.946V147.607C307.946 148.174 307.85 148.714 307.656 149.227C307.463 149.74 307.166 150.187 306.766 150.567C306.373 150.947 305.873 151.23 305.266 151.417L304.626 150.367C305.013 150.247 305.346 150.09 305.626 149.897C305.906 149.704 306.136 149.484 306.316 149.237C306.496 148.99 306.63 148.73 306.716 148.457C306.803 148.177 306.846 147.894 306.846 147.607V146.917ZM307.116 146.917H308.196V147.607C308.196 147.887 308.24 148.16 308.326 148.427C308.413 148.687 308.543 148.934 308.716 149.167C308.89 149.4 309.113 149.607 309.386 149.787C309.66 149.967 309.983 150.11 310.356 150.217L309.716 151.257C309.276 151.124 308.893 150.94 308.566 150.707C308.24 150.467 307.966 150.187 307.746 149.867C307.533 149.54 307.373 149.187 307.266 148.807C307.166 148.427 307.116 148.027 307.116 147.607V146.917ZM297.107 167.077V165.969L299.696 163.572C299.916 163.359 300.1 163.167 300.249 162.997C300.401 162.826 300.516 162.659 300.594 162.496C300.672 162.33 300.711 162.152 300.711 161.96C300.711 161.747 300.663 161.563 300.566 161.409C300.468 161.253 300.336 161.134 300.168 161.051C300 160.965 299.809 160.923 299.596 160.923C299.374 160.923 299.179 160.968 299.014 161.058C298.848 161.148 298.72 161.277 298.63 161.445C298.54 161.613 298.495 161.813 298.495 162.045H297.036C297.036 161.569 297.143 161.156 297.359 160.806C297.574 160.455 297.876 160.184 298.264 159.992C298.653 159.801 299.1 159.705 299.607 159.705C300.128 159.705 300.581 159.797 300.967 159.982C301.355 160.164 301.657 160.417 301.872 160.742C302.088 161.066 302.196 161.438 302.196 161.857C302.196 162.131 302.141 162.402 302.032 162.67C301.926 162.938 301.735 163.235 301.46 163.561C301.186 163.886 300.799 164.275 300.299 164.73L299.237 165.77V165.82H302.291V167.077H297.107Z" fill="#374151"/>
</g>

<!-- 회의실1 -->
<g id="1" class="clickable hover-fill">  
  <rect x="322.083" y="132.263" width="42.5" height="43.9103" rx="3.25" fill="white" stroke="#4B5563" stroke-width="1.5"/>
  <path d="M331.951 152.337H333.281V153.837H331.951V152.337ZM336.001 146.707H337.331V155.967H336.001V146.707ZM329.811 154.427L329.651 153.347C330.211 153.347 330.821 153.344 331.481 153.337C332.141 153.33 332.818 153.307 333.511 153.267C334.211 153.227 334.885 153.164 335.531 153.077L335.621 154.037C334.948 154.157 334.268 154.247 333.581 154.307C332.901 154.36 332.241 154.394 331.601 154.407C330.961 154.42 330.365 154.427 329.811 154.427ZM329.831 147.727H335.411V148.767H329.831V147.727ZM332.621 149.127C333.075 149.127 333.475 149.2 333.821 149.347C334.168 149.494 334.438 149.697 334.631 149.957C334.831 150.217 334.931 150.52 334.931 150.867C334.931 151.207 334.831 151.51 334.631 151.777C334.438 152.037 334.168 152.24 333.821 152.387C333.475 152.534 333.075 152.607 332.621 152.607C332.168 152.607 331.768 152.534 331.421 152.387C331.075 152.24 330.801 152.037 330.601 151.777C330.408 151.51 330.311 151.207 330.311 150.867C330.311 150.52 330.408 150.217 330.601 149.957C330.801 149.697 331.075 149.494 331.421 149.347C331.768 149.2 332.168 149.127 332.621 149.127ZM332.621 150.127C332.315 150.127 332.065 150.194 331.871 150.327C331.678 150.454 331.581 150.634 331.581 150.867C331.581 151.107 331.678 151.29 331.871 151.417C332.065 151.544 332.315 151.607 332.621 151.607C332.928 151.607 333.178 151.544 333.371 151.417C333.565 151.29 333.661 151.107 333.661 150.867C333.661 150.634 333.565 150.454 333.371 150.327C333.178 150.194 332.928 150.127 332.621 150.127ZM331.951 146.737H333.291V148.327H331.951V146.737ZM341.79 147.317C342.27 147.317 342.704 147.414 343.09 147.607C343.477 147.8 343.78 148.07 344 148.417C344.22 148.757 344.33 149.15 344.33 149.597C344.33 150.037 344.22 150.43 344 150.777C343.78 151.124 343.477 151.394 343.09 151.587C342.704 151.78 342.27 151.877 341.79 151.877C341.304 151.877 340.867 151.78 340.48 151.587C340.094 151.394 339.787 151.124 339.56 150.777C339.34 150.43 339.23 150.037 339.23 149.597C339.23 149.15 339.34 148.757 339.56 148.417C339.787 148.07 340.094 147.8 340.48 147.607C340.867 147.414 341.304 147.317 341.79 147.317ZM341.79 148.457C341.55 148.457 341.334 148.504 341.14 148.597C340.954 148.684 340.804 148.814 340.69 148.987C340.584 149.154 340.53 149.357 340.53 149.597C340.53 149.837 340.584 150.044 340.69 150.217C340.804 150.39 340.954 150.524 341.14 150.617C341.334 150.704 341.55 150.747 341.79 150.747C342.024 150.747 342.234 150.704 342.42 150.617C342.607 150.524 342.754 150.39 342.86 150.217C342.974 150.044 343.03 149.837 343.03 149.597C343.03 149.357 342.974 149.154 342.86 148.987C342.754 148.814 342.607 148.684 342.42 148.597C342.234 148.504 342.024 148.457 341.79 148.457ZM345.2 146.687H346.53V155.977H345.2V146.687ZM339 154.107L338.85 153.027C339.39 153.027 339.987 153.024 340.64 153.017C341.3 153.004 341.977 152.977 342.67 152.937C343.37 152.89 344.047 152.82 344.7 152.727L344.79 153.687C344.124 153.82 343.447 153.917 342.76 153.977C342.074 154.03 341.41 154.067 340.77 154.087C340.13 154.1 339.54 154.107 339 154.107ZM354.37 146.707H355.7V151.377H354.37V146.707ZM349.53 151.787H355.7V154.297H350.85V155.227H349.54V153.347H354.38V152.807H349.53V151.787ZM349.54 154.867H355.93V155.907H349.54V154.867ZM350.18 146.917H351.28V147.607C351.28 148.174 351.183 148.714 350.99 149.227C350.796 149.74 350.5 150.187 350.1 150.567C349.706 150.947 349.206 151.23 348.6 151.417L347.96 150.367C348.346 150.247 348.68 150.09 348.96 149.897C349.24 149.704 349.47 149.484 349.65 149.237C349.83 148.99 349.963 148.73 350.05 148.457C350.136 148.177 350.18 147.894 350.18 147.607V146.917ZM350.45 146.917H351.53V147.607C351.53 147.887 351.573 148.16 351.66 148.427C351.746 148.687 351.876 148.934 352.05 149.167C352.223 149.4 352.446 149.607 352.72 149.787C352.993 149.967 353.316 150.11 353.69 150.217L353.05 151.257C352.61 151.124 352.226 150.94 351.9 150.707C351.573 150.467 351.3 150.187 351.08 149.867C350.866 149.54 350.706 149.187 350.6 148.807C350.5 148.427 350.45 148.027 350.45 147.607V146.917ZM344.307 159.804V167.077H342.77V161.264H342.727L341.062 162.308V160.944L342.862 159.804H344.307Z" fill="#374151"/>
</g>
</svg>




